<?xml version="1.0" encoding="UTF-8" standalone="no"?>
<!-- Created with Inkscape (http://www.inkscape.org/) -->

<svg
   xmlns:svg="http://www.w3.org/2000/svg"
   xmlns="http://www.w3.org/2000/svg"
   version="1.1"
   width="400"
   height="225"
   id="svg2">
  <defs
     id="defs4">
    <filter
       color-interpolation-filters="sRGB"
       id="filter3635">
      <feGaussianBlur
         stdDeviation="17.032269"
         id="feGaussianBlur3637" />
    </filter>
    <filter
       x="-0.039718624"
       y="-0.12260571"
       width="1.0794373"
       height="1.2452114"
       color-interpolation-filters="sRGB"
       id="filter3732">
      <feGaussianBlur
         stdDeviation="3.2438985"
         id="feGaussianBlur3734" />
    </filter>
    <filter
       x="-0.040284988"
       y="-0.11750618"
       width="1.08057"
       height="1.2350124"
       color-interpolation-filters="sRGB"
       id="filter3640">
      <feGaussianBlur
         id="feGaussianBlur3642"
         stdDeviation="3.288702" />
    </filter>
    <filter
       x="-0.040128496"
       y="-0.11885822"
       width="1.0802571"
       height="1.2377164"
       color-interpolation-filters="sRGB"
       id="filter3612">
      <feGaussianBlur
         stdDeviation="3.3254291"
         id="feGaussianBlur3614" />
    </filter>
  </defs>
  <g
     id="g2824">
    <path
       d="M 0,0 400,0 400,225 0,225 0,0 z"
       id="rect3653"
       style="fill:#000000;fill-opacity:1;fill-rule:nonzero;stroke:none" />
    <path
       d="m 266.68236,146.08599 c 0,0 12.33698,-49.578395 12.33698,-49.578395 0,0 -12.12711,-0.304203 -12.12711,-0.304203 0,0 1.57648,-6.310336 1.57648,-6.310336 0,0 30.97471,1.793122 30.97471,1.793122 0,0 -1.45902,5.997828 -1.45902,5.997828 0,0 -12.58151,-0.613305 -12.58151,-0.613305 0,0 -12.19448,50.660599 -12.19448,50.660599 0,0 -6.52605,-1.64531 -6.52605,-1.64531 z M 205.16873,135.4433 c -6.8058,-1.5517 -11.6047,-10.55631 -7.4593,-13.99667 1.3263,-1.10072 2.1857,-0.60376 5.841,3.37756 2.5074,2.73115 5.1622,4.66818 6.3978,4.66818 3.4834,0 7.2669,-2.21683 8.7811,-5.14503 2.6429,-5.11079 1.8558,-7.73379 -4.0711,-13.56682 -5.9057,-5.81214 -7.0765,-8.42253 -6.1036,-13.608645 0.6203,-3.30643 5.1201,-8.42448 9.284,-10.55952 3.8924,-1.99587 10.9011,-1.38072 13.9274,1.22243 4.9809,4.28441 0.4641,7.63082 -5.6117,4.15758 -1.375,-0.78602 -3.21208,-0.803435 -4.47458,-0.822925 -2.6512,-0.0409 -6.56297,4.197819 -6.56297,6.644419 0,0.915097 1.18035,4.677771 4.57509,8.357931 2.45385,2.66015 5.96531,6.76121 6.39307,10.52069 1.38428,12.16624 -10.12191,21.21189 -20.91621,18.75082 z m -60.6181,-9.3803 c -13.7675,-5.99309 -9.3541,-29.051675 7.7519,-40.501775 7.0725,-4.73409 12.7139,-5.80444 17.6479,-3.34837 5.8163,2.89527 7.7079,6.37043 7.6786,14.10639 -0.032,8.398385 -2.897,14.569455 -10.1951,21.958785 -8.1864,8.28868 -15.7866,10.87426 -22.8833,7.78497 z m 11.58724,-6.1584 c 4.0479,-0.80958 11.2224,-6.99212 13.79265,-12.03017 7.42459,-14.553282 -0.34112,-27.733092 -14.05253,-18.980348 -5.42949,3.465937 -12.71792,10.537524 -14.51819,19.165328 -1.17266,5.61988 0.89623,8.91442 5.10834,11.48273 3.44499,2.10056 4.87493,1.32142 9.66973,0.36246 z m -55.5813,-2.53186 c 0,0 8.60166,-17.828894 8.60166,-17.828894 0,0 11.00893,-22.275141 11.00893,-22.275141 0,0 4.83048,1.877099 4.83048,1.877099 0,0 -15.93349,33.977406 -15.93349,33.977406 0,0 9.86344,1.97476 9.86344,1.97476 0,0 -2.42061,5.75274 -2.42061,5.75274 0,0 -15.95041,-3.47797 -15.95041,-3.47797 z"
       id="path3690"
       style="fill:#ffffff;filter:url(#filter3612)" />
  </g>
</svg>
